<svg xmlns="http://www.w3.org/2000/svg" version="1.1" xmlns:xlink="http://www.w3.org/1999/xlink" xmlns:svgjs="http://svgjs.dev/svgjs" width="2000" height="459" viewBox="0 0 2000 459"><g transform="matrix(1,0,0,1,-1.2121212121212466,0.9474294555893721)"><svg viewBox="0 0 396 91" data-background-color="#ffffff" preserveAspectRatio="xMidYMid meet" height="459" width="2000" xmlns="http://www.w3.org/2000/svg" xmlns:xlink="http://www.w3.org/1999/xlink"><g id="tight-bounds" transform="matrix(1,0,0,1,0.2400000000000091,-0.18783459794909163)"><svg viewBox="0 0 395.52 91.37566919589817" height="91.37566919589817" width="395.52"><g><svg viewBox="0 0 512.0483668814832 118.29682995667048" height="91.37566919589817" width="395.52"><g transform="matrix(1,0,0,1,116.52836688148312,16.34927244697834)"><svg viewBox="0 0 395.52 85.5982850627138" height="85.5982850627138" width="395.52"><g id="textblocktransform"><svg viewBox="0 0 395.52 85.5982850627138" height="85.5982850627138" width="395.52" id="textblock"><g><svg viewBox="0 0 395.52 85.5982850627138" height="85.5982850627138" width="395.52"><g transform="matrix(1,0,0,1,0,0)"><svg width="395.52" viewBox="4.2 -38 219.23000000000002 47.45" height="85.5982850627138" data-palette-color="#0c0a0f"><path d="M10.65 0L4.2 0 4.2-34.85 10.65-34.85 10.65-20.3 22.15-20.3 22.15-34.85 28.65-34.85 28.65 0 22.15 0 22.15-14.8 10.65-14.8 10.65 0ZM41.55 0.7L41.55 0.7Q39.25 0.7 37.74-0.33 36.22-1.35 35.49-3.05 34.75-4.75 34.75-6.8L34.75-6.8Q34.75-7.95 35.34-9.33 35.92-10.7 37.42-11.95 38.92-13.2 41.65-14 44.37-14.8 48.65-14.8L48.65-14.8 48.65-15.95Q48.65-17.8 47.76-19.03 46.87-20.25 44.2-20.25L44.2-20.25Q42.25-20.25 40.39-19.59 38.52-18.93 37.65-17.95L37.65-17.95 35.65-22.75Q37.15-23.78 39.66-24.64 42.17-25.5 45.25-25.5L45.25-25.5Q48.95-25.5 51-24.38 53.05-23.25 53.87-21.19 54.7-19.13 54.7-16.35L54.7-16.35 54.7 0 49.35 0 48.9-3.55Q46.3 0.7 41.55 0.7ZM44.2-4.1L44.2-4.1Q45.32-4.1 46.61-5.01 47.9-5.93 48.65-7.35L48.65-7.35 48.65-10.9Q48.4-10.95 48.11-10.95 47.82-10.95 47.45-10.95L47.45-10.95Q46.07-10.95 44.56-10.64 43.05-10.33 42-9.55 40.95-8.78 40.95-7.4L40.95-7.4Q40.95-5.6 41.75-4.85 42.55-4.1 44.2-4.1ZM67.8 0L61.4 0 61.4-24.9 67.2-24.9 67.32-21.63Q68.3-23.13 70.05-24.31 71.8-25.5 74.65-25.5L74.65-25.5Q78.45-25.5 80.3-23.1 82.15-20.7 82.15-16.45L82.15-16.45 82.15 0 75.75 0 75.75-15.9Q75.75-17.98 74.87-19.26 74-20.55 72.2-20.55L72.2-20.55Q70.45-20.55 69.12-19.26 67.8-17.98 67.8-15.9L67.8-15.9 67.8 0ZM97.69 0.7L97.69 0.7Q94.67 0.7 92.44-0.93 90.22-2.55 89.01-5.5 87.79-8.45 87.79-12.4L87.79-12.4Q87.79-18.55 90.31-22.03 92.82-25.5 97.79-25.5L97.79-25.5Q100.34-25.5 102.11-24.24 103.87-22.98 104.39-20.6L104.39-20.6 103.94-24.25 103.94-38 109.84-38 109.84 0 104.39 0 104.39-5.1Q103.72-2.53 102.02-0.91 100.32 0.7 97.69 0.7ZM99.14-4.25L99.14-4.25Q100.94-4.25 102.37-6.14 103.79-8.03 103.79-12.3L103.79-12.3Q103.79-16.2 102.69-18.32 101.59-20.45 99.29-20.45L99.29-20.45Q98.12-20.45 96.96-19.73 95.79-19 95.02-17.24 94.24-15.48 94.24-12.4L94.24-12.4Q94.24-8.28 95.67-6.26 97.09-4.25 99.14-4.25ZM124.89 9.45L118.74 9.45 122.79-1.7 113.44-24.9 120.39-24.9 124.09-13.8 125.69-8.05 127.29-13.8 131.04-24.9 137.59-24.9 124.89 9.45ZM148.04 0L141.59 0 141.59-34.85 148.04-34.85 148.04-20.3 159.54-20.3 159.54-34.85 166.04-34.85 166.04 0 159.54 0 159.54-14.8 148.04-14.8 148.04 0ZM181.09 0.6L181.09 0.6Q177.31 0.6 175.52-1.81 173.74-4.23 173.74-8.45L173.74-8.45 173.74-24.9 179.99-24.9 179.99-9Q179.99-6.95 180.74-5.65 181.49-4.35 183.29-4.35L183.29-4.35Q185.06-4.35 186.25-5.65 187.44-6.95 187.44-9L187.44-9 187.44-24.9 193.69-24.9 193.69 0 188.04 0 187.91-3.23Q186.99-1.75 185.4-0.58 183.81 0.6 181.09 0.6ZM213.48 0.7L213.48 0.7Q210.78 0.7 209.07-1 207.36-2.7 206.78-4.95L206.78-4.95 206.78 0 201.28 0 201.28-38 207.28-38 207.28-24.9 206.78-20.6Q207.18-22.3 208.37-23.4 209.56-24.5 211.08-25.03 212.61-25.55 214.03-25.55L214.03-25.55Q218.68-25.55 221.06-22.26 223.43-18.98 223.43-12.55L223.43-12.55Q223.43-8.08 222.1-5.14 220.76-2.2 218.5-0.75 216.23 0.7 213.48 0.7ZM212.03-4.25L212.03-4.25Q213.26-4.25 214.37-5.06 215.48-5.88 216.18-7.7 216.88-9.53 216.88-12.55L216.88-12.55Q216.88-16.75 215.47-18.6 214.06-20.45 212.13-20.45L212.13-20.45Q209.81-20.45 208.6-18.06 207.38-15.68 207.38-12.15L207.38-12.15Q207.38-8.63 208.62-6.44 209.86-4.25 212.03-4.25Z" opacity="1" transform="matrix(1,0,0,1,0,0)" fill="#0c0a0f" class="wordmark-text-0" data-fill-palette-color="primary" id="text-0"></path></svg></g></svg></g></svg></g></svg></g><g><svg viewBox="0 0 96.3206661370179 118.29682995667048" height="118.29682995667048" width="96.3206661370179"><g><svg xmlns="http://www.w3.org/2000/svg" data-name="Layer 1" viewBox="11.954928325740603 -0.000015664112440438817 104.09014334851878 127.83896210133094" x="0" y="0" width="96.3206661370179" height="118.29682995667048" class="icon-icon-0" data-fill-palette-color="accent" id="icon-0"><path d="M64 0A52 52 0 0 0 46 100.8l14.68 25.27a4 4 0 0 0 6.64 0L82 100.8A52 52 0 0 0 64 0ZM96 60H91.76A36.31 36.31 0 0 1 74 87.46a4 4 0 1 1-4-6.92A28.27 28.27 0 0 0 83.71 60H44.29A28.27 28.27 0 0 0 58 80.54a4 4 0 1 1-4 6.92A36.31 36.31 0 0 1 36.24 60H32a4 4 0 0 1-4-4 36 36 0 0 1 72 0A4 4 0 0 1 96 60Z" fill="#f98d67" data-fill-palette-color="accent"></path><path d="M52.38 52L55.5 29.32A28.08 28.08 0 0 0 36.28 52Z" fill="#f98d67" data-fill-palette-color="accent"></path><path d="M60.45 52h7.1L64.24 28h-0.48Z" fill="#f98d67" data-fill-palette-color="accent"></path><path d="M72.5 29.32L75.62 52H91.72A28.08 28.08 0 0 0 72.5 29.32Z" fill="#f98d67" data-fill-palette-color="accent"></path></svg></g></svg></g></svg></g><defs></defs></svg><rect width="395.52" height="91.37566919589817" fill="none" stroke="none" visibility="hidden"></rect></g></svg></g></svg>